<svg width="32" height="32" viewBox="0 0 32 32" fill="none" xmlns="http://www.w3.org/2000/svg">
<path d="M18.6667 13.3333L16 14.6667M16 14.6667L13.3333 13.3333M16 14.6667V18M26.6667 9.33333L24 10.6667M26.6667 9.33333L24 8M26.6667 9.33333V12.6667M18.6667 5.33333L16 4L13.3333 5.33333M5.33333 9.33333L8 8M5.33333 9.33333L8 10.6667M5.33333 9.33333V12.6667M16 28L13.3333 26.6667M16 28L18.6667 26.6667M16 28V24.6667M8 24L5.33333 22.6667V19.3333M24 24L26.6667 22.6667V19.3333" stroke="#A855F7" stroke-width="2.66667" stroke-linecap="round" stroke-linejoin="round"/>
</svg>
